<svg width="31" height="30" viewBox="0 0 31 30" fill="none" xmlns="http://www.w3.org/2000/svg">
<path fill-rule="evenodd" clip-rule="evenodd" d="M8.79282 15.0002C8.79282 13.2321 9.49519 11.5364 10.7454 10.2861C11.9957 9.03587 13.6914 8.3335 15.4595 8.3335C17.2276 8.3335 18.9233 9.03587 20.1735 10.2861C21.4238 11.5364 22.1262 13.2321 22.1262 15.0002C22.1262 16.7683 21.4238 18.464 20.1735 19.7142C18.9233 20.9645 17.2276 21.6668 15.4595 21.6668C13.6914 21.6668 11.9957 20.9645 10.7454 19.7142C9.49519 18.464 8.79282 16.7683 8.79282 15.0002ZM15.4595 16.6668C15.0175 16.6668 14.5935 16.4912 14.281 16.1787C13.9684 15.8661 13.7928 15.4422 13.7928 15.0002C13.7928 14.5581 13.9684 14.1342 14.281 13.8217C14.5935 13.5091 15.0175 13.3335 15.4595 13.3335C15.9015 13.3335 16.3254 13.5091 16.638 13.8217C16.9506 14.1342 17.1262 14.5581 17.1262 15.0002C17.1262 15.4422 16.9506 15.8661 16.638 16.1787C16.3254 16.4912 15.9015 16.6668 15.4595 16.6668Z" fill="#F9BB1B"/>
<path fill-rule="evenodd" clip-rule="evenodd" d="M0.459473 15C0.459473 13.0302 0.847459 11.0796 1.60128 9.25975C2.3551 7.43986 3.45999 5.78628 4.85287 4.3934C6.24575 3.00052 7.89934 1.89563 9.71922 1.14181C11.5391 0.387987 13.4896 0 15.4595 0C17.4293 0 19.3798 0.387987 21.1997 1.14181C23.0196 1.89563 24.6732 3.00052 26.0661 4.3934C27.459 5.78628 28.5638 7.43986 29.3177 9.25975C30.0715 11.0796 30.4595 13.0302 30.4595 15C30.4595 18.9782 28.8791 22.7936 26.0661 25.6066C23.253 28.4196 19.4377 30 15.4595 30C11.4812 30 7.66592 28.4196 4.85287 25.6066C2.03982 22.7936 0.459473 18.9782 0.459473 15ZM15.4595 26.6667C13.9274 26.6667 12.4103 26.3649 10.9948 25.7786C9.57937 25.1923 8.29324 24.3329 7.20989 23.2496C6.12654 22.1662 5.26718 20.8801 4.68088 19.4646C4.09457 18.0492 3.79281 16.5321 3.79281 15C3.79281 13.4679 4.09457 11.9508 4.68088 10.5354C5.26718 9.11989 6.12654 7.83377 7.20989 6.75042C8.29324 5.66707 9.57937 4.80771 10.9948 4.22141C12.4103 3.6351 13.9274 3.33333 15.4595 3.33333C18.5537 3.33333 21.5211 4.5625 23.7091 6.75042C25.897 8.93835 27.1261 11.9058 27.1261 15C27.1261 18.0942 25.897 21.0617 23.7091 23.2496C21.5211 25.4375 18.5537 26.6667 15.4595 26.6667Z" fill="#F9BB1B"/>
</svg>
